<svg version="1.1" id="Layer_1" xmlns="http://www.w3.org/2000/svg" xmlns:xlink="http://www.w3.org/1999/xlink" x="0px" y="0px"
	 width="100%" viewBox="0 0 500 500" enable-background="new 0 0 500 500" xml:space="preserve">
<path fill="#9E9E9E" opacity="1.000000" stroke="none" 
	d="
M501.000000,39.000000 
	C501.000000,186.690750 501.000000,334.381500 500.729431,482.743835 
	C498.066498,488.424408 493.781921,489.086060 488.764404,489.083527 
	C344.522552,489.010956 200.280640,489.024933 56.038750,489.023926 
	C54.872871,489.023926 53.703934,489.062439 52.541637,488.994202 
	C47.436092,488.694427 44.191521,485.538452 44.041656,480.417603 
	C43.900444,475.592316 44.040348,470.758759 44.511581,465.821014 
	C47.297916,465.682892 49.629261,465.626160 51.960602,465.626068 
	C183.065399,465.621613 314.170197,465.624725 445.274994,465.616241 
	C455.698608,465.615570 458.014740,463.302521 458.014832,453.071716 
	C458.015778,320.134460 458.013092,187.197189 458.021423,54.259922 
	C458.021881,46.932877 458.110474,39.605835 458.615021,32.286835 
	C469.196228,32.305603 479.320618,32.353271 489.444611,32.311764 
	C494.643921,32.290451 498.880341,33.776215 501.000000,39.000000 
z"/>
<path fill="#FC6604" opacity="1.000000" stroke="none" 
	d="
M458.158020,32.278793 
	C458.110474,39.605835 458.021881,46.932877 458.021423,54.259922 
	C458.013092,187.197189 458.015778,320.134460 458.014832,453.071716 
	C458.014740,463.302521 455.698608,465.615570 445.274994,465.616241 
	C314.170197,465.624725 183.065399,465.621613 51.960602,465.626068 
	C49.629261,465.626160 47.297916,465.682892 44.048393,465.721863 
	C33.333229,465.713318 23.532156,465.520660 13.740901,465.748932 
	C8.411153,465.873199 4.020341,464.643402 1.000000,460.000000 
	C1.000000,311.645782 1.000000,163.291550 1.357124,14.470707 
	C4.116408,9.553205 8.075580,8.896199 12.727347,8.898462 
	C157.245056,8.968774 301.762787,8.955960 446.280518,8.956334 
	C447.279480,8.956337 448.279938,8.927157 449.277130,8.971026 
	C454.638367,9.206885 457.847107,12.400921 457.993042,17.801567 
	C458.123413,22.625273 458.108704,27.452898 458.158020,32.278793 
M448.313293,56.281639 
	C451.220123,54.213104 454.126984,52.144573 457.195496,49.960999 
	C453.984650,43.894096 450.937836,38.137146 448.047974,31.411360 
	C448.047974,27.319120 448.047974,23.226881 448.047974,19.245701 
	C301.985779,19.245701 156.625366,19.245701 11.299584,19.245701 
	C11.299584,164.874664 11.299584,310.105408 11.299584,455.486664 
	C156.955536,455.486664 302.321106,455.486664 448.085907,455.486664 
	C448.085907,453.179993 448.085876,451.206421 448.085876,449.232880 
	C448.085846,320.257599 448.086609,191.282318 448.079102,62.307045 
	C448.079010,60.477242 447.976349,58.647446 448.313293,56.281639 
z"/>
<path fill="#FFFFFF" opacity="1.000000" stroke="none" 
	d="
M1.000000,460.468658 
	C4.020341,464.643402 8.411153,465.873199 13.740901,465.748932 
	C23.532156,465.520660 33.333229,465.713318 43.593395,465.829712 
	C44.040348,470.758759 43.900444,475.592316 44.041656,480.417603 
	C44.191521,485.538452 47.436092,488.694427 52.541637,488.994202 
	C53.703934,489.062439 54.872871,489.023926 56.038750,489.023926 
	C200.280640,489.024933 344.522552,489.010956 488.764404,489.083527 
	C493.781921,489.086060 498.066498,488.424408 500.729431,483.207703 
	C501.000000,488.995300 501.000000,494.990601 501.000000,500.952972 
	C334.333313,500.952972 167.666656,500.952972 1.000000,500.952972 
	C1.000000,487.583069 1.000000,474.260193 1.000000,460.468658 
z"/>
<path fill="#FFFEFD" opacity="1.000000" stroke="none" 
	d="
M458.615021,32.286835 
	C458.108704,27.452898 458.123413,22.625273 457.993042,17.801567 
	C457.847107,12.400921 454.638367,9.206885 449.277130,8.971026 
	C448.279938,8.927157 447.279480,8.956337 446.280518,8.956334 
	C301.762787,8.955960 157.245056,8.968774 12.727347,8.898462 
	C8.075580,8.896199 4.116408,9.553205 1.357124,14.002049 
	C1.000000,9.670109 1.000000,5.340218 1.000000,1.046035 
	C167.666672,1.046035 334.333344,1.046035 501.000000,1.046035 
	C501.000000,13.415607 501.000000,25.739145 501.000000,38.531342 
	C498.880341,33.776215 494.643921,32.290451 489.444611,32.311764 
	C479.320618,32.353271 469.196228,32.305603 458.615021,32.286835 
z"/>
<path fill="#E3E4DD" opacity="1.000000" stroke="none" 
	d="
M447.921570,56.817638 
	C447.976349,58.647446 448.079010,60.477242 448.079102,62.307045 
	C448.086609,191.282318 448.085846,320.257599 448.085876,449.232880 
	C448.085876,451.206421 448.085907,453.179993 448.085907,455.486664 
	C302.321106,455.486664 156.955536,455.486664 11.299584,455.486664 
	C11.299584,310.105408 11.299584,164.874664 11.299584,19.245701 
	C156.625366,19.245701 301.985779,19.245701 448.047974,19.245701 
	C448.047974,23.226881 448.047974,27.319120 447.622650,31.890976 
	C430.987671,41.407093 413.892120,49.180378 398.778687,59.779926 
	C376.807251,75.189247 356.264954,92.636269 334.874451,108.943123 
	C326.547089,103.786034 317.560516,102.089973 308.343842,102.068451 
	C255.862656,101.945908 203.380432,101.889481 150.900162,102.142265 
	C143.519699,102.177811 135.945557,103.275810 128.809372,105.184357 
	C105.340431,111.461029 87.007057,135.971680 87.002396,160.233505 
	C86.991867,215.047516 86.987793,269.861511 87.003571,324.675537 
	C87.012939,357.242493 113.869415,383.988312 146.565262,383.996796 
	C200.879440,384.010864 255.193634,384.007843 309.507812,383.997009 
	C332.695648,383.992401 354.971130,368.698822 363.833160,347.267975 
	C368.018524,337.146606 368.807068,326.549347 368.862793,315.964783 
	C369.112854,268.482849 369.011932,220.998779 368.924500,173.515686 
	C368.912567,167.045059 369.008301,160.421051 367.707825,154.147156 
	C366.280396,147.261032 363.294006,140.698044 361.104187,133.679840 
	C376.242554,118.716774 390.774506,103.518211 406.435425,89.588951 
	C419.580933,77.897041 434.042572,67.684914 447.921570,56.817638 
z"/>
<path fill="#3E3E3E" opacity="1.000000" stroke="none" 
	d="
M448.117432,56.549637 
	C434.042572,67.684914 419.580933,77.897041 406.435425,89.588951 
	C390.774506,103.518211 376.242554,118.716774 360.803040,133.826111 
	C351.752411,144.209595 342.872650,153.929169 334.530762,164.090332 
	C298.217804,208.322876 268.390076,256.502960 246.162338,309.349091 
	C243.776154,315.022247 239.885406,320.400269 235.607208,324.878204 
	C221.268555,339.886169 201.831711,338.259735 191.039246,320.465088 
	C185.087234,310.651367 181.135132,299.520844 177.060196,288.690948 
	C161.309738,246.831284 145.844681,204.866776 121.336182,167.025787 
	C121.004234,166.513245 120.910011,165.846725 120.525536,164.732407 
	C126.947083,162.978455 133.212143,161.493225 139.313416,159.505249 
	C142.354721,158.514313 144.200592,159.282425 146.282272,161.433029 
	C163.141159,178.850113 177.947083,197.900650 190.688278,218.466324 
	C198.268951,230.702332 204.830902,243.569489 211.939499,256.311798 
	C212.495712,255.582413 213.258774,254.743820 213.841324,253.794479 
	C236.396408,217.037811 263.113647,183.464081 292.509125,152.031021 
	C306.254761,137.332611 320.884308,123.460800 335.113220,109.214355 
	C356.264954,92.636269 376.807251,75.189247 398.778687,59.779926 
	C413.892120,49.180378 430.987671,41.407093 447.544189,32.375393 
	C450.937836,38.137146 453.984650,43.894096 457.195496,49.960999 
	C454.126984,52.144573 451.220123,54.213104 448.117432,56.549637 
z"/>
<path fill="#F9F5F0" opacity="1.000000" stroke="none" 
	d="
M334.874451,108.943130 
	C320.884308,123.460800 306.254761,137.332611 292.509125,152.031021 
	C263.113647,183.464081 236.396408,217.037811 213.841324,253.794479 
	C213.258774,254.743820 212.495712,255.582413 211.939499,256.311798 
	C204.830902,243.569489 198.268951,230.702332 190.688278,218.466324 
	C177.947083,197.900650 163.141159,178.850113 146.282272,161.433029 
	C144.200592,159.282425 142.354721,158.514313 139.313416,159.505249 
	C133.212143,161.493225 126.947083,162.978455 120.525536,164.732407 
	C120.910011,165.846725 121.004234,166.513245 121.336182,167.025787 
	C145.844681,204.866776 161.309738,246.831284 177.060196,288.690948 
	C181.135132,299.520844 185.087234,310.651367 191.039246,320.465088 
	C201.831711,338.259735 221.268555,339.886169 235.607208,324.878204 
	C239.885406,320.400269 243.776154,315.022247 246.162338,309.349091 
	C268.390076,256.502960 298.217804,208.322876 334.530762,164.090332 
	C342.872650,153.929169 351.752411,144.209595 360.685791,134.140533 
	C363.294006,140.698044 366.280396,147.261032 367.707825,154.147156 
	C369.008301,160.421051 368.912567,167.045059 368.924500,173.515686 
	C369.011932,220.998779 369.112854,268.482849 368.862793,315.964783 
	C368.807068,326.549347 368.018524,337.146606 363.833160,347.267975 
	C354.971130,368.698822 332.695648,383.992401 309.507812,383.997009 
	C255.193634,384.007843 200.879440,384.010864 146.565262,383.996796 
	C113.869415,383.988312 87.012939,357.242493 87.003571,324.675537 
	C86.987793,269.861511 86.991867,215.047516 87.002396,160.233505 
	C87.007057,135.971680 105.340431,111.461029 128.809372,105.184357 
	C135.945557,103.275810 143.519699,102.177811 150.900162,102.142265 
	C203.380432,101.889481 255.862656,101.945908 308.343842,102.068451 
	C317.560516,102.089973 326.547089,103.786034 334.874451,108.943130 
z"/>
</svg>